<svg width="7" height="7" viewBox="0 0 7 7" fill="none" xmlns="http://www.w3.org/2000/svg">
<path d="M0.877144 0.545898H1.67752C1.85926 0.545898 2.01436 0.677288 2.04424 0.856552L2.3191 2.50569C2.34593 2.66668 2.26462 2.82634 2.11864 2.89933L1.54309 3.18711C1.9581 4.21839 2.78125 5.04154 3.81253 5.45655L4.10031 4.881C4.17329 4.73502 4.33296 4.65371 4.49395 4.68054L6.14309 4.9554C6.32235 4.98528 6.45374 5.14038 6.45374 5.32211V6.12249C6.45374 6.32782 6.28729 6.49427 6.08197 6.49427H5.33842C2.6692 6.49427 0.505371 4.33044 0.505371 1.66122V0.917671C0.505371 0.712347 0.67182 0.545898 0.877144 0.545898Z" fill="white"/>
</svg>
