<svg width="19" height="8" viewBox="0 0 19 8" fill="none" xmlns="http://www.w3.org/2000/svg">
<path d="M5.60083 5.57175C5.94484 5.29941 6.14551 4.88373 6.14551 4.44656V2.58318C8.30989 1.88083 10.6535 1.87366 12.825 2.58318V4.45372C12.825 4.8909 13.0257 5.30658 13.3697 5.57892L14.7959 6.71128C15.3692 7.16279 16.1863 7.11979 16.7023 6.60378L17.5766 5.72942C18.15 5.15607 18.15 4.20288 17.5408 3.66537C12.9468 -0.391061 6.02367 -0.391061 1.42973 3.66537C0.820547 4.20288 0.820547 5.15607 1.39389 5.72942L2.26825 6.60378C2.77709 7.11979 3.59411 7.16279 4.16746 6.71128L5.60083 5.57175Z" fill="white"/>
</svg>
