<svg width="24" height="24" viewBox="0 0 24 24" fill="none" xmlns="http://www.w3.org/2000/svg">
<mask id="mask0_2_1596" style="mask-type:alpha" maskUnits="userSpaceOnUse" x="0" y="0" width="24" height="24">
<rect x="0.537109" y="0.751953" width="22.9339" height="22.9339" fill="white"/>
</mask>
<g mask="url(#mask0_2_1596)">
<path fill-rule="evenodd" clip-rule="evenodd" d="M6.09858 5.52994L6.72926 2.4912C6.8057 2.13764 6.69103 1.77452 6.44258 1.51651C6.02213 1.09606 5.34367 1.09606 4.93277 1.51651L1.11046 5.33883C0.737781 5.69239 0.537109 6.17974 0.537109 6.68619V12.219C0.537109 13.2701 1.39713 14.1302 2.44827 14.1302H8.10529C8.86975 14.1302 9.55777 13.6715 9.86356 12.9739L11.9085 8.19601C12.4436 6.93464 11.5167 5.52994 10.1502 5.52994H6.09858ZM15.9028 10.3078C15.1384 10.3078 14.4503 10.7665 14.1445 11.4641L12.0996 16.242C11.5645 17.5033 12.4818 18.908 13.8579 18.908H17.9095L17.2788 21.9468C17.2024 22.3003 17.3171 22.6635 17.5655 22.9215C17.986 23.3419 18.6644 23.3419 19.0753 22.9215L22.8976 19.0992C23.2608 18.736 23.4614 18.2583 23.4614 17.7518V12.219C23.471 11.1679 22.611 10.3078 21.5598 10.3078H15.9028Z" fill="#FAFAFA"/>
</g>
</svg>
