<svg width="5" height="5" viewBox="0 0 5 5" fill="none" xmlns="http://www.w3.org/2000/svg">
<path fill-rule="evenodd" clip-rule="evenodd" d="M0.934461 0.398929L2.53044 1.99491L4.12643 0.398929C4.27161 0.253742 4.50701 0.253742 4.65219 0.398929C4.79738 0.544115 4.79738 0.779509 4.65219 0.924695L3.05621 2.52068L4.65219 4.11666C4.79738 4.26185 4.79738 4.49724 4.65219 4.64243C4.50701 4.78761 4.27161 4.78761 4.12643 4.64243L2.53044 3.04644L0.934461 4.64243C0.789275 4.78761 0.553881 4.78761 0.408695 4.64243C0.263508 4.49724 0.263508 4.26185 0.408695 4.11666L2.00468 2.52068L0.408695 0.924695C0.263508 0.779509 0.263508 0.544115 0.408695 0.398929C0.553881 0.253742 0.789275 0.253742 0.934461 0.398929Z" fill="white"/>
</svg>
