<svg width="14" height="14" viewBox="0 0 14 14" fill="none" xmlns="http://www.w3.org/2000/svg">
<path fill-rule="evenodd" clip-rule="evenodd" d="M3.31592 13.6292C2.68667 13.6292 2.08321 13.3789 1.63826 12.9332C1.19332 12.4876 0.943359 11.8831 0.943359 11.2529V8.87653L3.66784 6.1477C3.76412 6.30999 3.87934 6.46023 4.01107 6.59525L4.73549 7.32082L2.52506 9.66865H4.89762V10.4608C4.89762 10.6708 4.98094 10.8723 5.12925 11.0209C5.27757 11.1694 5.47872 11.2529 5.68847 11.2529H8.85188C9.28922 11.2529 9.64273 10.8988 9.64273 10.4608V9.66865H12.0153L9.80486 7.32082L10.5293 6.59525C10.6611 6.46037 10.7765 6.31042 10.8733 6.14849L13.597 8.87653V11.2529C13.597 11.8831 13.347 12.4876 12.9021 12.9332C12.4571 13.3789 11.8537 13.6292 11.2244 13.6292H3.31592ZM7.27017 7.29151C7.06772 7.29151 6.86526 7.21389 6.71104 7.05942L5.12934 5.4752C5.01897 5.36423 4.9438 5.22308 4.91327 5.06947C4.88274 4.91586 4.8982 4.75663 4.95772 4.61179C5.01772 4.46721 5.11916 4.34369 5.24923 4.25684C5.3793 4.16999 5.53215 4.12371 5.68847 4.12385H6.47932V1.74751C6.48465 1.54097 6.57031 1.34468 6.71804 1.20048C6.86577 1.05629 7.06389 0.975586 7.27017 0.975586C7.47646 0.975586 7.67458 1.05629 7.82231 1.20048C7.97004 1.34468 8.0557 1.54097 8.06103 1.74751V4.12385H8.85188C9.17138 4.12385 9.46083 4.31713 9.58263 4.61259C9.64233 4.75726 9.65789 4.91641 9.62734 5.06994C9.5968 5.22347 9.52152 5.36449 9.41101 5.4752L7.82931 7.05942C7.67509 7.21389 7.47263 7.29151 7.27017 7.29151Z" fill="white"/>
</svg>
