<svg width="20" height="20" viewBox="0 0 20 20" fill="none" xmlns="http://www.w3.org/2000/svg">
<path d="M10.0664 13.086C11.6527 13.086 12.9332 11.8055 12.9332 10.2193C12.9332 8.63301 11.6527 7.35254 10.0664 7.35254C8.48018 7.35254 7.19971 8.63301 7.19971 10.2193C7.19971 11.8055 8.48018 13.086 10.0664 13.086Z" fill="#FAFAFA"/>
<path d="M5.28864 6.39656H3.46348C4.78218 4.11272 7.24757 2.57424 10.0665 2.57424C13.4015 2.57424 16.23 4.71474 17.2716 7.69614C17.4054 8.06882 17.778 8.30771 18.1698 8.30771C18.8196 8.30771 19.2974 7.66748 19.0872 7.05591C17.778 3.32915 14.2329 0.663086 10.0665 0.663086C6.94179 0.663086 4.16105 2.1729 2.4219 4.49496V3.52982C2.4219 3.00425 1.99189 2.57424 1.46632 2.57424C0.940753 2.57424 0.510742 3.00425 0.510742 3.52982V7.35214C0.510742 7.8777 0.940753 8.30771 1.46632 8.30771H5.28864C5.8142 8.30771 6.24421 7.8777 6.24421 7.35214C6.24421 6.82657 5.8142 6.39656 5.28864 6.39656Z" fill="#FAFAFA"/>
<path d="M14.8444 14.041H16.6695C15.3508 16.3249 12.8854 17.8634 10.0665 17.8634C6.73149 17.8634 3.90298 15.7229 2.8614 12.7415C2.72762 12.3688 2.35494 12.1299 1.96316 12.1299C1.31336 12.1299 0.835574 12.7701 1.0458 13.3817C2.35494 17.1084 5.90014 19.7745 10.0665 19.7745C13.1912 19.7745 15.9719 18.2647 17.7111 15.9426V16.9078C17.7111 17.4333 18.1411 17.8634 18.6667 17.8634C19.1922 17.8634 19.6222 17.4333 19.6222 16.9078V13.0855C19.6222 12.5599 19.1922 12.1299 18.6667 12.1299H14.8444C14.3188 12.1299 13.8888 12.5599 13.8888 13.0855C13.8888 13.611 14.3188 14.041 14.8444 14.041Z" fill="#FAFAFA"/>
</svg>
