<svg width="24" height="23" viewBox="0 0 24 23" fill="none" xmlns="http://www.w3.org/2000/svg">
<path fill-rule="evenodd" clip-rule="evenodd" d="M6.09858 4.52994L6.72926 1.4912C6.8057 1.13764 6.69103 0.774519 6.44258 0.516513C6.02213 0.0960582 5.34367 0.0960582 4.93277 0.516513L1.11046 4.33883C0.737781 4.69239 0.537109 5.17974 0.537109 5.68619V11.219C0.537109 12.2701 1.39713 13.1302 2.44827 13.1302H8.10529C8.86975 13.1302 9.55777 12.6715 9.86356 11.9739L11.9085 7.19601C12.4436 5.93464 11.5167 4.52994 10.1502 4.52994H6.09858ZM15.9028 9.30784C15.1384 9.30784 14.4503 9.76651 14.1445 10.4641L12.0996 15.242C11.5645 16.5033 12.4818 17.908 13.8579 17.908H17.9095L17.2788 20.9468C17.2024 21.3003 17.3171 21.6635 17.5655 21.9215C17.986 22.3419 18.6644 22.3419 19.0753 21.9215L22.8976 18.0992C23.2608 17.736 23.4614 17.2583 23.4614 16.7518V11.219C23.471 10.1679 22.611 9.30784 21.5598 9.30784H15.9028Z" fill="#FAFAFA"/>
</svg>
